# xmcd
# 
# Track frame offsets:
#     180
#     15162
#     30829
#     42650
#     56439
#     64576
#     75568
#     87272
#     95867
#     106877
#     118102
#     129749
#     140716
#     154025
#     167810
#     179801
# 
# Disc length: 2533
# 
# Revision: 1
# Processed by: cddbd v1.5.2PL0 Copyright (c) Steve Scherf et al.
# Submitted via: BonkEnc v1.0rc1
# 
DISCID=d409e310
DTITLE=Various Artist - Country Gold
DYEAR=0
DGENRE=Country
TTITLE0=Lynn Anderson - Desperado
TTITLE1=Kenny Rogers - My Washington Woman
TTITLE2=Johnny Cash - Port of Lonely Hearts
TTITLE3=Jerry Lee Lewis - Cold, Cold Heart
TTITLE4=Willie Nelson - You wouldn't cross the street to say goodby 
TTITLE5=George Jones - I'll share my world with you
TTITLE6=Donna Fargo - The happiest girl in the whole U.S.A.
TTITLE7=Waylon Jennings - Abilene
TTITLE8=Dolly Parton - Honky Tonk Angels
TTITLE9=Patsy Cline - Just out of reach
TTITLE10=The oak ridge boys - No one cared as much
TTITLE11=Don Williams - Spend some time with me
TTITLE12=Alabama - Patches
TTITLE13=Willy Nelson - Home is where you're happy
TTITLE14=Lynn Anderson - You don't have to say You love me
TTITLE15=Freddy Fender - Before the next teardrop fall
EXTD=
EXTT0=
EXTT1=
EXTT2=
EXTT3=
EXTT4=
EXTT5=
EXTT6=
EXTT7=
EXTT8=
EXTT9=
EXTT10=
EXTT11=
EXTT12=
EXTT13=
EXTT14=
EXTT15=
PLAYORDER=
